HIERARCHY
ROOT Hips
{
	OFFSET 0.000000 0.000000 0.000000
	CHANNELS 6 Xposition Yposition Zposition Xrotation Yrotation Zrotation
	JOINT LeftUpLeg_virtual
	{
		OFFSET 0.000000 0.000000 0.000000
		CHANNELS 3 Xrotation Yrotation Zrotation
		JOINT LeftUpLeg
		{
			OFFSET 11.394100 -6.187798 -0.413800
			CHANNELS 3 Xrotation Yrotation Zrotation
			JOINT LeftLeg
			{
				OFFSET 0.430247 -32.302673 3.732800
				CHANNELS 3 Xrotation Yrotation Zrotation
				JOINT LeftFoot
				{
					OFFSET -0.430247 -48.264931 -6.423300
					CHANNELS 3 Xrotation Yrotation Zrotation
					JOINT LeftToeBase
					{
						OFFSET 4.230900 -16.068199 23.438400
						CHANNELS 3 Xrotation Yrotation Zrotation
						JOINT LeftToe_End
						{
							OFFSET 4.510700 0.695400 19.974600
							CHANNELS 3 Xrotation Yrotation Zrotation
							End Site
							{
								OFFSET 0 0 0
							}
						}
					}
				}
			}
		}
	}
	JOINT RightUpLeg_virtual
	{
		OFFSET 0.000000 0.000000 0.000000
		CHANNELS 3 Xrotation Yrotation Zrotation
		JOINT RightUpLeg
		{
			OFFSET -11.333700 -6.187798 -0.413800
			CHANNELS 3 Xrotation Yrotation Zrotation
			JOINT RightLeg
			{
				OFFSET -0.430392 -32.302628 3.733000
				CHANNELS 3 Xrotation Yrotation Zrotation
				JOINT RightFoot
				{
					OFFSET 0.430392 -48.264973 -6.423500
					CHANNELS 3 Xrotation Yrotation Zrotation
					JOINT RightToeBase
					{
						OFFSET -4.230900 -16.068199 23.438400
						CHANNELS 3 Xrotation Yrotation Zrotation
						JOINT RightToe_End
						{
							OFFSET -4.510700 0.695400 19.974600
							CHANNELS 3 Xrotation Yrotation Zrotation
							End Site
							{
								OFFSET 0 0 0
							}
						}
					}
				}
			}
		}
	}
	JOINT Spine_virtual
	{
		OFFSET 0.000000 0.000000 0.000000
		CHANNELS 3 Xrotation Yrotation Zrotation
		JOINT Spine
		{
			OFFSET -0.002400 12.777504 0.315300
			CHANNELS 3 Xrotation Yrotation Zrotation
			JOINT Spine1
			{
				OFFSET -0.002067 5.816869 0.032633
				CHANNELS 3 Xrotation Yrotation Zrotation
				JOINT Spine1_split
				{
					OFFSET -0.002067 5.816869 0.032633
					CHANNELS 3 Xrotation Yrotation Zrotation
					JOINT Spine2
					{
						OFFSET -0.002067 5.816869 0.032633
						CHANNELS 3 Xrotation Yrotation Zrotation
						JOINT Neck_virtual
						{
							OFFSET 0.000000 0.000000 0.000000
							CHANNELS 3 Xrotation Yrotation Zrotation
							JOINT Neck
							{
								OFFSET -0.003700 21.199493 -0.826900
								CHANNELS 3 Xrotation Yrotation Zrotation
								JOINT Head
								{
									OFFSET 0.000000 20.442200 4.834800
									CHANNELS 3 Xrotation Yrotation Zrotation
									JOINT HeadTop_End
									{
										OFFSET 0.000000 34.668396 4.968400
										CHANNELS 3 Xrotation Yrotation Zrotation
										End Site
										{
											OFFSET 0 0 0
										}
									}
								}
							}
						}
						JOINT LeftShoulder_virtual
						{
							OFFSET 0.000000 0.000000 0.000000
							CHANNELS 3 Xrotation Yrotation Zrotation
							JOINT LeftShoulder
							{
								OFFSET 3.288150 8.794197 -1.372250
								CHANNELS 3 Xrotation Yrotation Zrotation
								JOINT LeftShoulder_split
								{
									OFFSET 3.288150 8.794197 -1.372250
									CHANNELS 3 Xrotation Yrotation Zrotation
									JOINT LeftArm
									{
										OFFSET 11.953299 -2.279007 -0.146200
										CHANNELS 3 Xrotation Yrotation Zrotation
										JOINT LeftForeArm
										{
											OFFSET 18.448900 0.000000 0.000000
											CHANNELS 3 Xrotation Yrotation Zrotation
											JOINT LeftHand
											{
												OFFSET 29.527798 0.000000 0.000000
												CHANNELS 3 Xrotation Yrotation Zrotation
												End Site
												{
													OFFSET 0 0 0
												}
											}
										}
									}
								}
							}
						}
						JOINT RightShoulder_virtual
						{
							OFFSET 0.000000 0.000000 0.000000
							CHANNELS 3 Xrotation Yrotation Zrotation
							JOINT RightShoulder
							{
								OFFSET -3.249400 8.794197 -1.372250
								CHANNELS 3 Xrotation Yrotation Zrotation
								JOINT RightShoulder_split
								{
									OFFSET -3.249400 8.794197 -1.372250
									CHANNELS 3 Xrotation Yrotation Zrotation
									JOINT RightArm
									{
										OFFSET -11.953299 -2.279007 -0.146200
										CHANNELS 3 Xrotation Yrotation Zrotation
										JOINT RightForeArm
										{
											OFFSET -18.448900 0.000000 0.000000
											CHANNELS 3 Xrotation Yrotation Zrotation
											JOINT RightHand
											{
												OFFSET -29.527802 0.000000 0.000000
												CHANNELS 3 Xrotation Yrotation Zrotation
												End Site
												{
													OFFSET 0 0 0
												}
											}
										}
									}
								}
							}
						}
					}
				}
			}
		}
	}
}
MOTION
Frames: 7
Frame Time: 0.03333333
6.492387 78.553024 134.923462 0.000000 0.000000 0.000000 6.335189 -19.935109 2.068053 16.724108 30.068644 13.105855 42.073115 19.622039 -5.485965 -29.956096 -1.322825 -30.960926 -29.438522 1.558308 -8.054106 0.000000 0.000000 0.000000 6.335189 -19.935109 2.068053 -76.754483 -4.018257 -8.261676 60.147247 2.735523 -7.596293 9.305681 8.879823 5.464524 -2.924135 2.984494 1.673260 0.000000 0.000000 0.000000 6.335189 -19.935109 2.068053 2.338380 -3.521918 0.385536 4.701313 -6.072153 0.825286 0.000000 0.000000 0.000000 0.000000 0.000000 0.000000 4.701331 -6.072131 0.825277 10.491358 0.826939 14.017715 -3.989688 7.552088 -19.237008 0.000000 0.000000 0.000000 4.701331 -6.072131 0.825277 -3.202947 -13.805896 -19.510620 0.000000 0.000000 0.000000 -49.174729 -6.616427 -30.495493 -15.032866 -67.111253 17.775490 0.000000 0.000000 0.000000 4.701331 -6.072131 0.825277 -0.201933 -1.407189 -2.611447 0.000000 0.000000 0.000000 -25.414646 43.192661 15.264530 43.319010 8.483368 -4.892905 0.000000 0.000000 0.000000 
5.378129 79.094933 139.817337 0.000000 0.000000 0.000000 10.261429 -18.620841 1.147301 17.261712 32.855915 14.890605 36.616593 22.834926 -5.827461 -25.050315 -3.377975 -32.058497 -34.766810 -1.082553 -11.336260 0.000000 0.000000 0.000000 10.261429 -18.620841 1.147301 -78.529615 -6.343209 -9.485691 63.694485 4.844003 -7.622742 3.928503 6.530699 6.075844 -2.924221 2.984537 1.673305 0.000000 0.000000 0.000000 10.261429 -18.620841 1.147301 2.363246 -5.495310 1.242426 4.899760 -10.154809 2.662431 0.000000 0.000000 0.000000 0.000000 0.000000 0.000000 4.899744 -10.154738 2.662415 8.502563 4.160266 15.381251 -1.540123 11.907279 -20.331224 0.000000 0.000000 0.000000 4.899744 -10.154738 2.662415 -5.170240 -18.664284 -18.158324 0.000000 0.000000 0.000000 -46.432811 -18.052711 -34.485608 -9.204826 -38.217050 16.317073 0.000000 0.000000 0.000000 4.899744 -10.154738 2.662415 0.248728 -2.144185 4.457617 0.000000 0.000000 0.000000 -14.470975 21.706640 4.671655 37.782267 8.308576 -4.381095 0.000000 0.000000 0.000000 
3.992000 79.884338 144.785965 0.000000 0.000000 0.000000 13.053569 -17.920379 0.149598 16.816540 34.720474 18.209750 33.844888 26.792759 -6.848367 -15.057526 -5.961673 -34.141862 -42.693259 -5.484981 -12.706128 0.000000 0.000000 0.000000 13.053569 -17.920379 0.149598 -77.891723 -7.876706 -9.501874 66.030116 6.176307 -7.636591 -1.443696 4.205553 6.537196 -2.924278 2.984576 1.673350 0.000000 0.000000 0.000000 13.053569 -17.920379 0.149598 2.362042 -7.023190 1.483229 5.005441 -13.332001 3.278270 0.000000 0.000000 0.000000 0.000000 0.000000 0.000000 5.005466 -13.331903 3.278240 6.051128 7.224983 16.300542 0.372251 15.500505 -20.487815 0.000000 0.000000 0.000000 5.005466 -13.331903 3.278240 -5.462526 -21.822325 -15.277260 0.000000 0.000000 0.000000 -41.539848 -28.186688 -42.662659 -9.093008 -26.803749 12.045795 0.000000 0.000000 0.000000 5.005466 -13.331903 3.278240 0.571910 -3.041701 8.393505 0.000000 0.000000 0.000000 -12.235264 14.739608 3.552606 31.986896 9.211514 -2.529606 0.000000 0.000000 0.000000 
2.858330 80.225891 149.310074 0.000000 0.000000 0.000000 15.261716 -23.855103 -0.831741 14.438851 34.935407 22.546101 38.869159 31.120814 -9.201413 1.401643 -9.057650 -34.178202 -47.425483 -8.296142 -10.185408 0.000000 0.000000 0.000000 15.261716 -23.855103 -0.831741 -76.035462 -7.549596 -3.001041 66.157417 5.035009 -7.738787 -4.795823 4.573843 7.331779 -2.924382 2.984604 1.673396 0.000000 0.000000 0.000000 15.261716 -23.855103 -0.831741 2.346734 -7.673520 1.617126 4.996713 -14.597200 3.473516 0.000000 0.000000 0.000000 0.000000 0.000000 0.000000 4.996700 -14.597159 3.473524 3.275437 10.090217 17.157567 2.001214 18.625465 -20.506439 0.000000 0.000000 0.000000 4.996700 -14.597159 3.473524 -5.377028 -23.703601 -13.318968 0.000000 0.000000 0.000000 -42.422353 -33.040309 -48.437748 -9.159016 -21.147565 7.965472 0.000000 0.000000 0.000000 4.996700 -14.597159 3.473524 0.640809 -4.012267 9.540033 0.000000 0.000000 0.000000 -11.078686 12.213163 3.421795 25.842333 9.919229 -0.269007 0.000000 0.000000 0.000000 
2.302752 79.791443 153.076782 0.000000 0.000000 0.000000 16.225808 -32.936197 -1.694593 4.522570 32.993225 26.577323 51.630701 36.161958 -7.281322 15.686049 -12.952807 -19.923131 -39.924481 -0.045019 -22.341643 0.000000 0.000000 0.000000 16.225808 -32.936197 -1.694593 -74.616449 -6.661337 4.593518 66.333732 4.354921 -7.807882 -6.702437 6.617236 8.093609 -2.924465 2.984622 1.673430 0.000000 0.000000 0.000000 16.225808 -32.936197 -1.694593 2.334841 -7.660211 1.788793 4.901194 -14.438185 3.413747 0.000000 0.000000 0.000000 0.000000 0.000000 0.000000 4.901232 -14.438125 3.413735 0.438226 12.660387 17.929923 3.355485 21.266404 -20.351616 0.000000 0.000000 0.000000 4.901232 -14.438125 3.413735 -5.157787 -24.333222 -12.292895 0.000000 0.000000 0.000000 -44.167760 -34.537637 -52.409824 -9.134686 -17.605771 3.835015 0.000000 0.000000 0.000000 4.901232 -14.438125 3.413735 0.571550 -4.957472 9.352155 0.000000 0.000000 0.000000 -10.481201 10.565235 3.211357 19.502982 10.395748 1.972009 0.000000 0.000000 0.000000 
1.782993 80.319077 157.040848 0.000000 0.000000 0.000000 15.703452 -40.144949 -2.285092 -0.805162 33.305068 26.306714 52.912929 33.092833 -5.548447 26.723955 -13.018155 3.592434 -16.198123 18.651054 -29.414186 0.000000 0.000000 0.000000 15.703452 -40.144949 -2.285092 -70.987140 -5.225665 9.030090 65.336265 4.482723 -7.745514 -8.829508 9.094703 8.730978 -2.924485 2.984626 1.673458 0.000000 0.000000 0.000000 15.703452 -40.144949 -2.285092 2.318313 -7.441247 1.879150 4.808410 -13.989924 3.304518 0.000000 0.000000 0.000000 0.000000 0.000000 0.000000 4.808438 -13.990126 3.304600 -2.213183 14.832854 18.592244 4.471270 23.403694 -19.992911 0.000000 0.000000 0.000000 4.808438 -13.990126 3.304600 -5.014289 -24.209481 -12.063861 0.000000 0.000000 0.000000 -45.768531 -34.792386 -54.632993 -8.986552 -15.490777 0.047421 0.000000 0.000000 0.000000 4.808438 -13.990126 3.304600 0.548279 -5.780486 9.082012 0.000000 0.000000 0.000000 -10.753131 9.687305 2.595254 13.138233 10.738108 3.535828 0.000000 0.000000 0.000000 
1.344053 81.353249 161.026245 0.000000 0.000000 0.000000 14.787553 -45.111241 -2.399712 -10.661615 30.373749 31.407829 61.983120 30.156228 -4.361691 24.384615 -11.869605 4.864173 -15.032135 28.747914 -59.564939 0.000000 0.000000 0.000000 14.787553 -45.111241 -2.399712 -66.795487 -2.061974 11.507306 63.615815 4.206439 -7.674201 -11.226743 10.788175 10.051400 -2.924516 2.984628 1.673457 0.000000 0.000000 0.000000 14.787553 -45.111241 -2.399712 2.298494 -7.089790 1.885121 4.695485 -13.321992 3.018850 0.000000 0.000000 0.000000 0.000000 0.000000 0.000000 4.695428 -13.321849 3.018843 -4.429394 16.505528 19.109575 5.391629 25.014116 -19.400324 0.000000 0.000000 0.000000 4.695428 -13.321849 3.018843 -4.736589 -24.033761 -11.562547 0.000000 0.000000 0.000000 -47.608652 -35.222507 -55.319116 -8.725350 -14.972068 -2.859733 0.000000 0.000000 0.000000 4.695428 -13.321849 3.018843 0.489542 -6.448402 8.415420 0.000000 0.000000 0.000000 -12.910687 9.604453 1.956855 6.881779 11.381513 4.245372 0.000000 0.000000 0.000000 
